<?xml version="1.0" encoding="utf-8"?>
<!-- Generator: Adobe Illustrator 26.4.1, SVG Export Plug-In . SVG Version: 6.00 Build 0)  -->
<svg version="1.0" id="katman_1" xmlns="http://www.w3.org/2000/svg" xmlns:xlink="http://www.w3.org/1999/xlink" x="0px" y="0px"
	 viewBox="0 0 1190.55 841.89" style="enable-background:new 0 0 1190.55 841.89;" xml:space="preserve">
<style type="text/css">
	.st0{fill:#23224C;}
	.st1{fill:#FEC902;}
	.st2{fill:#E21A84;}
</style>
<path class="st0" d="M442.31,464.15c-13.58,0.21-26.52-5.76-35.17-16.23v57.98H380.6V362.88h23.96l0.9,15.72
	c8.5-11.78,22.19-18.7,36.72-18.55c26.8,0,46.38,22.42,46.38,52.05s-19.58,52.05-46.38,52.05L442.31,464.15L442.31,464.15z
	 M434.07,379.76c-15.46,0-28.09,12.11-28.09,32.34c0,20.23,12.5,32.47,28.09,32.47s28.09-12.11,28.09-32.47
	C462.15,391.74,449.53,379.76,434.07,379.76L434.07,379.76z M588.55,461.44l-0.9-15.72c-8.55,11.77-22.3,18.65-36.85,18.42
	c-26.67,0-46.38-22.29-46.38-52.05s19.71-52.05,46.38-52.05c13.91,0,28.6,6.44,36.72,18.55l1.03-15.72h23.96v98.43L588.55,461.44z
	 M559.04,379.76c-15.46,0-28.09,12.11-28.09,32.34s12.63,32.47,28.09,32.47s28.09-12.11,28.09-32.47
	C587.13,391.74,574.63,379.76,559.04,379.76z M705.15,461.44v-54.5c0-19.33-6.7-25.64-18.68-25.64c-12.63,0-26.28,11.47-26.28,25.12
	v55.01h-26.54v-98.56h24.22l1.16,18.17c7.55-12.97,21.45-20.93,36.46-20.87c26.28,0,36.08,18.17,36.08,42.52v58.75H705.15
	L705.15,461.44z M828.7,461.44l-1.03-15.59c-8.55,11.77-22.3,18.65-36.85,18.42c-26.67,0-46.38-22.29-46.38-51.92
	c0-29.63,19.71-52.05,46.38-52.05c13.27,0,26.8,5.41,35.17,16.11v-51.92h26.54v136.96H828.7z M799.2,379.76
	c-15.46,0-28.09,12.11-28.09,32.34s12.76,32.47,28.22,32.47c15.46,0,28.09-12.11,28.09-32.34c0-20.23-12.5-32.47-28.09-32.47H799.2
	L799.2,379.76z M952.13,461.44l-0.9-15.72c-8.5,11.78-22.19,18.7-36.72,18.55c-26.8,0-46.38-22.42-46.38-52.05
	c0-29.63,19.58-52.05,46.38-52.05c13.91,0,28.47,6.44,36.72,18.42l0.9-15.72h23.96v98.56H952.13z M922.63,379.76
	c-15.46,0-27.96,12.11-28.09,32.47c-0.13,20.36,12.63,32.34,28.09,32.34c15.46,0,28.09-12.11,28.09-32.47
	c0-20.36-12.5-32.21-28.09-32.21V379.76L922.63,379.76z M1034.72,464.67c-13.91-0.13-27.53-4.01-39.42-11.21l4.38-18.17
	c10.31,6.7,22.29,10.56,34.66,10.95c10.44,0,17.78-3.22,17.78-11.47c0-7.09-7.47-9.53-21-12.76c-24.22-5.15-32.85-18.04-32.85-31.95
	c0-15.46,12.11-30.15,38.78-30.15c16.23,0,30.41,7.09,33.5,9.02l-4.38,17.26c-8.63-5.15-18.42-7.99-28.47-8.25
	c-10.69,0-15.98,3.61-15.98,9.53c0,6.7,6.83,9.66,17.39,12.11c26.03,5.54,36.46,17.65,36.46,30.92
	C1075.56,451.65,1060.1,464.67,1034.72,464.67z M164.02,295.63h31.05v64.42h-31.05C164.02,360.05,164.02,295.63,164.02,295.63z
	 M164.02,428.07h31.05v64.42h-31.05C164.02,492.49,164.02,428.07,164.02,428.07z"/>
<path class="st1" d="M164.02,378.86h31.05v30.41h-31.05V378.86z"/>
<path class="st0" d="M114.16,348.58h31.05v214.26h-31.05V348.58z M212.85,481.16h31.05v64.42h-31.05
	C212.85,545.58,212.85,481.16,212.85,481.16z M212.85,348.71h31.05v64.42h-31.05C212.85,413.13,212.85,348.71,212.85,348.71z"/>
<path class="st2" d="M212.85,431.94h31.05v30.41h-31.05C212.85,462.35,212.85,431.94,212.85,431.94z"/>
<path class="st0" d="M261.68,278.88h31.05v214.26h-31.05C261.68,493.14,261.68,278.88,261.68,278.88z"/>
</svg>
