<svg xmlns="http://www.w3.org/2000/svg" xmlns:xlink="http://www.w3.org/1999/xlink" viewBox="0 0 1000 500"><defs><linearGradient id="linear-gradient" x1="800.29" y1="85.09" x2="921.64" y2="418.5" gradientUnits="userSpaceOnUse"><stop offset="0.01" stop-color="#e4a910"/><stop offset="0.32" stop-color="#dfa311"/><stop offset="0.63" stop-color="#d08c0c"/><stop offset="1" stop-color="#c17f06"/></linearGradient><linearGradient id="linear-gradient-2" x1="836.16" y1="454.56" x2="836.16" y2="147.27" gradientUnits="userSpaceOnUse"><stop offset="0" stop-color="#c17f06"/><stop offset="0.22" stop-color="#c17f06" stop-opacity="0.99"/><stop offset="0.37" stop-color="#c28006" stop-opacity="0.94"/><stop offset="0.5" stop-color="#c38107" stop-opacity="0.86"/><stop offset="0.61" stop-color="#c58207" stop-opacity="0.75"/><stop offset="0.72" stop-color="#c78408" stop-opacity="0.61"/><stop offset="0.82" stop-color="#ca8609" stop-opacity="0.43"/><stop offset="0.91" stop-color="#cd890b" stop-opacity="0.22"/><stop offset="1" stop-color="#d08c0c" stop-opacity="0"/></linearGradient><linearGradient id="linear-gradient-3" x1="730.33" y1="145.9" x2="820.89" y2="461.7" gradientUnits="userSpaceOnUse"><stop offset="0" stop-color="#f6d54e"/><stop offset="0.31" stop-color="#eec634"/><stop offset="0.57" stop-color="#e9b822"/><stop offset="1" stop-color="#e9b21c"/></linearGradient><linearGradient id="linear-gradient-4" x1="739.57" y1="454.56" x2="739.57" y2="248.96" gradientUnits="userSpaceOnUse"><stop offset="0" stop-color="#f7db5e"/><stop offset="0.2" stop-color="#f7da5d" stop-opacity="0.99"/><stop offset="0.34" stop-color="#f5d75a" stop-opacity="0.95"/><stop offset="0.45" stop-color="#f3d255" stop-opacity="0.89"/><stop offset="0.56" stop-color="#efcc4e" stop-opacity="0.8"/><stop offset="0.66" stop-color="#ebc345" stop-opacity="0.69"/><stop offset="0.75" stop-color="#e6b839" stop-opacity="0.55"/><stop offset="0.84" stop-color="#dfab2c" stop-opacity="0.39"/><stop offset="0.92" stop-color="#d89c1d" stop-opacity="0.21"/><stop offset="1" stop-color="#d08c0c" stop-opacity="0"/></linearGradient><linearGradient id="linear-gradient-5" x1="661.04" y1="243.09" x2="724.64" y2="464.92" gradientUnits="userSpaceOnUse"><stop offset="0" stop-color="#f8e386"/><stop offset="0.31" stop-color="#f6dc65"/><stop offset="0.57" stop-color="#f7db5e"/><stop offset="1" stop-color="#fad859"/></linearGradient></defs><g style="isolation:isolate"><g id="Layer_1" data-name="Layer 1"><path d="M911.06,454.56H795.72V65.19a19.75,19.75,0,0,1,19.75-19.75h95.59a19.75,19.75,0,0,1,19.75,19.75V434.81A19.75,19.75,0,0,1,911.06,454.56Z" style="fill:url(#linear-gradient)"/><path d="M841.44,147.27H811.12V454.56h50.07V167A19.74,19.74,0,0,0,841.44,147.27Z" style="opacity:0.15;mix-blend-mode:multiply;fill:url(#linear-gradient-2)"/><path d="M845.79,454.56H708.63V167a19.74,19.74,0,0,1,19.75-19.74h97.67A19.74,19.74,0,0,1,845.79,167Z" style="fill:url(#linear-gradient-3)"/><path d="M745.9,249H713.5v205.6h52.14V268.71A19.74,19.74,0,0,0,745.9,249Z" style="opacity:0.15;mix-blend-mode:multiply;fill:url(#linear-gradient-4)"/><path d="M760.78,454.56H643.36a19.74,19.74,0,0,1-19.74-19.75V268.71A19.74,19.74,0,0,1,643.36,249H741a19.75,19.75,0,0,1,19.75,19.75Z" style="fill:url(#linear-gradient-5)"/><path d="M72.22,301.32a3.18,3.18,0,0,1-3-3.27V206.54c0-3.25,1.11-5.11,3-5.11H95.42c12.36,0,23.45,7.42,27.59,18.47a30.12,30.12,0,0,1-3.88,27.62c-5.46,7.87-13.89,12.57-22.56,12.57l-21.16.29v37.9a3.11,3.11,0,0,1-3.18,3Zm3.19-47.17H96.57c11.59-.14,22.14-11.75,22.14-24.36a22.16,22.16,0,0,0-22.14-22.14H75.41Z" style="fill:#ca7f0d"/><path d="M168.36,303.4c-19.64,0-35.62-16.89-35.62-37.65s16-37.64,35.62-37.64S204,245,204,265.75,188,303.4,168.36,303.4Zm0-68.82c-16,0-29,14-29,31.17s13,31,29,31,29-13.91,29-31S184.35,234.58,168.36,234.58Z" style="fill:#ca7f0d"/><path d="M279,303.4a3.18,3.18,0,0,1-2.55-2l0-.11-.24-.23-18-58.77L240.26,301s0,0,0,0a.66.66,0,0,0-.17.45,3.3,3.3,0,0,1-2.85,1.92,4.38,4.38,0,0,1-1.27-.29.54.54,0,0,1-.45-.21,2.62,2.62,0,0,1-1.47-1.57l-19.69-68A3.38,3.38,0,0,1,216,229a3.27,3.27,0,0,1,1.22-.24,3.16,3.16,0,0,1,3,2l16.81,61.32,18-58.7a3.61,3.61,0,0,1,6.52,0L279.48,292l19.3-61.24a3.42,3.42,0,0,1,3.11-2A2.66,2.66,0,0,1,303,229a3.32,3.32,0,0,1,1.81,4.28L282.67,301a3.91,3.91,0,0,1-1.26,1.67,2.86,2.86,0,0,1-1.61.69Z" style="fill:#ca7f0d"/><path d="M345.88,303.4c-19.22,0-32.64-15.42-32.64-37.49,0-22.61,12.42-37.65,31.94-37.8,25.46-.21,28.68,17.74,28.68,35v.59a3.1,3.1,0,0,1-3.31,3h-50.7l0,.43c.85,18.23,10.08,28.74,26,29.6.57,0,1.12.05,1.68.05a27.18,27.18,0,0,0,17-5.63c1.12-1.18,2-1.72,2.93-1.72A3.08,3.08,0,0,1,369,290a3.52,3.52,0,0,1,1.09,4.72C366.93,298.88,358.89,303.4,345.88,303.4Zm-.46-68.67c-13.24,0-23.44,7.22-25.08,25l-.09.49h47.34C367.59,249.18,366.29,234.73,345.42,234.73Z" style="fill:#ca7f0d"/><path d="M395.84,303.4a3.33,3.33,0,0,1-3.47-3.31V231.58a3.33,3.33,0,0,1,3.47-3.32,3.25,3.25,0,0,1,3.16,3.32v8.47l.79.18a26.68,26.68,0,0,1,21.93-11.41c1.87,0,4.51.84,4.51,2.7s-.66,3.22-4,3.23c-9.73.06-13.7,2.81-16.54,5.78-6.55,6.85-6.73,17.74-6.73,17.85v41.71A3.24,3.24,0,0,1,395.84,303.4Z" style="fill:#ca7f0d"/><path d="M479.1,301.32a3,3,0,0,1-3.08-3.08V203.32a3.12,3.12,0,0,1,3.08-3.08h24.79A25,25,0,0,1,528.8,225.3c0,7.59-6,17-13.7,21.52l-.78.46.86.3c11.5,3.93,17.58,12.59,17.58,25a28.73,28.73,0,0,1-28.7,28.7Zm3.22-6.3h21.74a22.35,22.35,0,0,0,22.4-22.39c-.14-11.79-9.56-20.33-22.4-20.33H482.32Zm0-49.17h19.49c10.25,0,20.69-10.37,20.69-20.55a18.7,18.7,0,0,0-18.61-18.75H482.32Z" style="fill:#ca7f0d"/><path d="M558.49,301.32a3.12,3.12,0,0,1-3.08-3.08V203.32a3.15,3.15,0,0,1,6.3,0v94.92A3.15,3.15,0,0,1,558.49,301.32Z" style="fill:#ca7f0d"/></g></g></svg>