<svg xmlns="http://www.w3.org/2000/svg" xmlns:svg="http://www.w3.org/2000/svg" id="Layer_1" width="560" height="560" enable-background="new 0 0 532.627 498.523" overflow="visible" version="1.1" viewBox="0 0 560 560" xml:space="preserve"><defs id="defs11"><clipPath id="clipPath23113" clipPathUnits="userSpaceOnUse"><circle style="fill:#0054a6;fill-opacity:1;stroke-width:2.963;stroke-miterlimit:4;stroke-dasharray:none" id="circle23115" cx="280.012" cy="279.88" r="252.579"/></clipPath><clipPath id="clipPath3227" clipPathUnits="userSpaceOnUse"><path style="fill:none;stroke:#000;stroke-width:1px;stroke-linecap:butt;stroke-linejoin:miter;stroke-opacity:1" id="path3229" d="m 435.44688,177.4754 c -5.90951,7.14809 -9.78357,15.96041 -11.05524,25.14738 -1.27167,9.18697 0.063,18.72029 3.80859,27.20485 3.74562,8.48456 9.89071,15.89424 17.53598,21.1447 7.64527,5.25046 16.76719,8.32554 26.03084,8.77522 15.30311,0.74286 30.79637,-5.96322 40.72859,-17.62889 9.93223,-11.66566 14.0814,-28.03017 10.90733,-43.0189 -1.94656,-9.19211 -6.53149,-17.80994 -13.06697,-24.56061 -6.53547,-6.75067 -15.00029,-11.6123 -24.12453,-13.85553 -9.12424,-2.24323 -18.87834,-1.8608 -27.79894,1.08994 -8.9206,2.95073 -16.97879,8.46019 -22.96565,15.70184 z"/></clipPath><clipPath id="clipPath7261" clipPathUnits="userSpaceOnUse"><ellipse style="fill:#f0f;stroke:#009b42;stroke-width:1.88976" id="ellipse7263" cx="483.829" cy="211.438" rx="52.731" ry="40.115"/></clipPath><clipPath id="clipPath8189" clipPathUnits="userSpaceOnUse"><ellipse style="fill:#f0f;stroke:#eeb54d;stroke-width:.1;stroke-miterlimit:4;stroke-dasharray:none;stroke-opacity:1" id="ellipse8191" cx="473.604" cy="210.983" rx="48.457" ry="41.833"/></clipPath></defs><path id="circle" style="fill:#0054a6;fill-opacity:1;stroke-width:2.963;stroke-miterlimit:4;stroke-dasharray:none;stroke:none" d="M 280.01172 27.300781 A 252.57939 252.57939 0 0 0 27.431641 279.88086 A 252.57939 252.57939 0 0 0 57.744141 399.76562 C 59.195235 400.10468 60.587492 400.65816 61.941406 401.28125 C 66.840219 403.53575 71.468686 406.79445 74.214844 411.43555 C 75.587922 413.75609 76.458133 416.39575 76.568359 419.08984 C 76.677567 421.75902 76.009142 424.47294 74.560547 426.7168 A 252.57939 252.57939 0 0 0 280.01172 532.45898 A 252.57939 252.57939 0 0 0 532.5918 279.88086 A 252.57939 252.57939 0 0 0 280.01172 27.300781 z"/><path id="tongue" fill="#0054a6" fill-rule="evenodd" d="m 513.56686,184.93081 12.891,-5.996 8.711,-23.809 9.141,3.203 -7.852,21.289 21.758,7.5 -3.281,8.916 -24.297,-8.486 -13.398,6.162" clip-rule="evenodd" style="fill:#0054a6;fill-opacity:1"/><path id="snake" fill="#0054a6" fill-rule="evenodd" d="m 373.90992,313.03486 c -17.39799,-23.797 -51.77696,-37.63286 -81.2681,-44.12822 -29.49115,-6.49535 -47.44014,-11.51901 -61.77612,-19.27626 -16.36281,-8.85397 -29.22641,-34.96222 -24.20294,-57.598 7.88381,-35.52446 39.61017,-61.08652 75.84117,-56.02752 18.094,2.559 33.438,12.139 43.55499,25.625 l 40.117,52.705 c 22.93,29.531 48.71101,38.32 76.758,24.375 l 13.64756,-6.45002 c 1.133,-0.527 2.50681,-1.59041 4.73081,-0.88308 2.224,0.70733 3.31502,2.62611 4.56297,4.87011 1.24794,2.244 2.56705,4.31231 4.91495,4.87732 2.34789,0.56501 5.6182,0.177 7.14707,-1.28038 10.39551,-9.90944 31.48264,-30.08895 31.48264,-30.08895 5.703,-4.883 4.023,-9.365 4.023,-9.365 l -7.852,-17.881 c 0,0 -2.148,-4.287 -9.57,-3.301 l -43.672,4.014 c -2.539,0.361 -4.805,2.051 -5.781,4.629 -0.586,1.504 -0.625,3.076 -0.195,4.502 l 1.563,5.029 c 0.313,1.045 0.313,2.217 -0.117,3.291 -0.508,1.328 -1.523,2.266 -2.734,2.764 l -12.344,5.225 c -14.22674,4.82612 -27.617,2.734 -37.422,-9.258 l -11.211,-14.893 -31.914,-42.354 c -15.156,-20.098 -38.00799,-34.434 -64.99999,-38.203 -54.043,-7.568 -104.199,29.854 -112.051,83.584 -3.965,27.08 -0.23964,49.98277 20.21927,73.38016 20.45892,23.39738 60.24695,32.31062 94.71373,40.20984 3.688,0.875 14.063,3.438 20.203,5.656 5.676,2.055 18.74999,6.875 29.37499,15.57 v 0 c 12.695,12.906 19.414,31.344 16.563,50.68 -4.805,32.969 -35.586,55.938 -68.74999,51.289 -16.611,-2.305 -30.635,-11.109 -39.922,-23.438 l -38.32,-50.859 c -7.813,-10.367 -19.629,-17.773 -33.594,-19.766 -13.945,-1.953 -27.441,1.914 -37.9,9.75 l -80.043417,59.73605 c 3.392949,9.65154 7.686724,19.24315 16.84366,27.03872 l 82.523757,-61.87477 c 3.779,-2.578 8.467,-3.75 13.33,-3.086 5.176,0.742 9.58,3.461 12.471,7.305 l 40.537,54.477 c 14.277,17.516 35.02,29.922 59.307,33.336 51.09399,7.148 98.51599,-28.242 105.93799,-79.063 3.436,-23.649 -2.345,-46.485 -14.728,-64.844" clip-rule="evenodd" style="fill:#fff;fill-opacity:1;stroke:none" clip-path="url(#clipPath23113)"/></svg>