<?xml version="1.0" encoding="utf-8"?>
<!-- Generator: Adobe Illustrator 24.0.1, SVG Export Plug-In . SVG Version: 6.00 Build 0)  -->
<svg version="1.1"
	 id="svg60" xmlns:cc="http://creativecommons.org/ns#" xmlns:dc="http://purl.org/dc/elements/1.1/" xmlns:rdf="http://www.w3.org/1999/02/22-rdf-syntax-ns#" xmlns:svg="http://www.w3.org/2000/svg"
	 xmlns="http://www.w3.org/2000/svg" xmlns:xlink="http://www.w3.org/1999/xlink" x="0px" y="0px"
	 viewBox="-260.552 -146.192 720 340" enable-background="new -260.552 -146.192 720 340" xml:space="preserve">
<g id="g18" transform="matrix(18.510943,0,0,18.510943,0,-0.11106566)">
	<path id="path8" fill="#4285F4" d="M-29.532,30.953h12.581V0.399l-17.973-13.479v38.642
		C-34.923,28.539-32.509,30.953-29.532,30.953z"/>
	<path id="path10" fill="#34A853" d="M26.183,30.953h12.582c2.978,0,5.392-2.414,5.392-5.392v-38.642L26.183,0.399V30.953z"/>
	<path id="path12" fill="#FBBC04" d="M26.183-22.963V0.399l17.973-13.479v-7.187c0-4.466-3.621-8.087-8.088-8.087
		c-1.75,0-3.452,0.568-4.852,1.618L26.183-22.963z"/>
	<path id="path14" fill="#EA4335" d="M-16.95,0.399v-23.362L4.616-6.789l21.566-16.175V0.399L4.616,16.573L-16.95,0.399z"/>
	<path id="path16" fill="#C5221F" d="M-34.923-20.268v7.187L-16.95,0.399v-23.362l-5.033-3.774
		c-3.573-2.68-8.642-1.956-11.322,1.617C-34.356-23.72-34.923-22.017-34.923-20.268z"/>
</g>
</svg>
